<svg width="700" height="100" viewBox="0 0 700 100" fill="none" xmlns="http://www.w3.org/2000/svg">
<path fill-rule="evenodd" clip-rule="evenodd" d="M31.9867 96.2692C35.9235 98.7564 41.5553 99.9999 48.8824 99.9999C55.4436 99.9999 61.5128 98.432 67.0899 95.296C72.6672 92.0519 77.1507 87.3479 80.541 81.1841C83.931 75.0203 85.6258 67.5588 85.6258 58.7997V57.8264C85.6258 49.0673 83.931 41.6058 80.541 35.442C77.1507 29.2782 72.6672 24.6282 67.0899 21.4923C61.5128 18.2482 55.4436 16.6261 48.8824 16.6261C43.9611 16.6261 39.8057 17.2208 36.4157 18.4104C33.1348 19.4917 30.4558 20.8975 28.3781 22.6277C26.4094 24.3579 24.8239 26.1963 23.621 28.1428H20.6685V0H0V99.9999H20.3404V87.9967H23.293C25.152 91.0246 28.05 93.7821 31.9867 96.2692ZM58.5603 76.1557C54.2955 80.1567 48.9917 82.1573 42.6489 82.1573C36.3064 82.1573 31.0026 80.1567 26.7374 76.1557C22.4726 72.0465 20.3404 66.0989 20.3404 58.313C20.3404 50.5271 22.4726 44.6336 26.7374 40.6326C31.0026 36.5234 36.3064 34.4687 42.6489 34.4687C49.1011 34.4687 54.4049 36.5234 58.5603 40.6326C62.8251 44.6336 64.9576 50.5271 64.9576 58.313C64.9576 66.0989 62.8251 72.0465 58.5603 76.1557Z" fill="black"/>
<path fill-rule="evenodd" clip-rule="evenodd" d="M129.865 100C124.069 100 118.875 99.0267 114.282 97.0803C109.689 95.0256 106.025 92.1059 103.291 88.3211C100.667 84.4282 99.3548 79.7243 99.3548 74.2092C99.3548 68.6942 100.667 64.0984 103.291 60.4218C106.025 56.637 109.744 53.8254 114.446 51.987C119.257 50.0406 124.725 49.0673 130.849 49.0673H153.158V44.5256C153.158 40.7408 151.955 37.6589 149.549 35.2798C147.144 32.7926 143.316 31.5491 138.067 31.5491C132.927 31.5491 129.1 32.7386 126.584 35.1176C124.069 37.3885 122.429 40.3623 121.664 44.039L102.635 37.7129C103.948 33.6037 106.025 29.8729 108.869 26.5207C111.821 23.0603 115.704 20.3028 120.515 18.2482C125.436 16.0854 131.396 15.0041 138.395 15.0041C149.112 15.0041 157.587 17.6535 163.82 22.9521C170.054 28.2509 173.17 35.9286 173.17 45.9854V75.9935C173.17 79.2376 174.701 80.8597 177.763 80.8597H184.324V97.7291H170.546C166.499 97.7291 163.164 96.7559 160.54 94.8094C157.915 92.8629 156.603 90.2676 156.603 87.0235V86.8613H153.486C153.049 88.1589 152.064 89.8892 150.534 92.0519C149.003 94.1065 146.597 95.9448 143.316 97.5669C140.035 99.189 135.552 100 129.865 100ZM133.474 83.455C139.27 83.455 143.972 81.887 147.581 78.751C151.299 75.5069 153.158 71.2355 153.158 65.9367V64.3147H132.326C128.498 64.3147 125.491 65.1257 123.304 66.7478C121.117 68.3698 120.023 70.6407 120.023 73.5604C120.023 76.4801 121.171 78.8591 123.468 80.6975C125.764 82.5358 129.1 83.455 133.474 83.455Z" fill="black"/>
<path d="M232.587 100C221.979 100 213.285 97.7291 206.505 93.1874C199.725 88.6455 195.624 82.1573 194.203 73.7226L213.231 68.8564C213.996 72.6412 215.254 75.615 217.003 77.7778C218.862 79.9405 221.104 81.5085 223.729 82.4817C226.463 83.3469 229.416 83.7794 232.587 83.7794C237.398 83.7794 240.952 82.9684 243.249 81.3463C245.545 79.6161 246.694 77.5074 246.694 75.0202C246.694 72.5331 245.6 70.6407 243.413 69.343C241.226 67.9373 237.726 66.8019 232.915 65.9367L228.322 65.1257C222.635 64.0443 217.441 62.5844 212.739 60.7462C208.036 58.7997 204.264 56.1503 201.42 52.798C198.577 49.4458 197.155 45.1203 197.155 39.8216C197.155 31.8194 200.108 25.7097 206.013 21.4923C211.918 17.1669 219.683 15.0041 229.306 15.0041C238.383 15.0041 245.928 17.0047 251.943 21.0057C257.957 25.0068 261.894 30.2515 263.753 36.7397L244.561 42.5791C243.686 38.4699 241.882 35.5501 239.148 33.82C236.524 32.0898 233.243 31.2247 229.306 31.2247C225.369 31.2247 222.362 31.9276 220.284 33.3334C218.206 34.631 217.168 36.4694 217.168 38.8483C217.168 41.4436 218.261 43.3901 220.448 44.6878C222.635 45.8772 225.588 46.7965 229.306 47.4453L233.899 48.2563C240.023 49.3376 245.545 50.7975 250.467 52.6358C255.497 54.3661 259.434 56.9073 262.277 60.2596C265.23 63.5037 266.706 67.9373 266.706 73.5604C266.706 81.9951 263.589 88.5374 257.356 93.1874C251.232 97.7291 242.976 100 232.587 100Z" fill="black"/>
<path fill-rule="evenodd" clip-rule="evenodd" d="M321.889 100C313.797 100 306.634 98.3238 300.401 94.9716C294.277 91.5112 289.465 86.6991 285.966 80.5353C282.576 74.2633 280.881 66.91 280.881 58.4752V56.5288C280.881 48.0941 282.576 40.7948 285.966 34.631C289.356 28.359 294.113 23.547 300.237 20.1947C306.361 16.7342 313.469 15.0041 321.561 15.0041C329.544 15.0041 336.488 16.7883 342.394 20.3569C348.299 23.8173 352.892 28.6834 356.172 34.9554C359.453 41.1192 361.093 48.3104 361.093 56.5288V63.5037H301.877C302.096 69.0186 304.174 73.5064 308.11 76.9668C312.047 80.4271 316.859 82.1573 322.545 82.1573C328.341 82.1573 332.606 80.9137 335.34 78.4266C338.074 75.9394 340.152 73.182 341.573 70.1541L358.469 78.9132C356.938 81.7248 354.696 84.8067 351.743 88.1589C348.9 91.403 345.073 94.2146 340.261 96.5937C335.449 98.8645 329.326 100 321.889 100ZM302.041 48.2563H340.097C339.66 43.6064 337.746 39.8757 334.356 37.0641C331.075 34.2525 326.756 32.8467 321.397 32.8467C315.82 32.8467 311.391 34.2525 308.11 37.0641C304.83 39.8757 302.807 43.6064 302.041 48.2563Z" fill="black"/>
<path fill-rule="evenodd" clip-rule="evenodd" d="M477.41 94.9716C483.644 98.3238 490.806 100 498.899 100C506.335 100 512.459 98.8645 517.271 96.5937C522.082 94.2146 525.91 91.403 528.753 88.1589C531.706 84.8067 533.947 81.7248 535.478 78.9132L518.583 70.1541C517.161 73.182 515.083 75.9394 512.35 78.4266C509.616 80.9137 505.351 82.1573 499.555 82.1573C493.869 82.1573 489.057 80.4271 485.12 76.9668C481.183 73.5064 479.105 69.0186 478.886 63.5037H538.103V56.5288C538.103 48.3104 536.463 41.1192 533.182 34.9554C529.901 28.6834 525.308 23.8173 519.403 20.3569C513.498 16.7883 506.554 15.0041 498.571 15.0041C490.478 15.0041 483.37 16.7342 477.246 20.1947C471.122 23.547 466.365 28.359 462.975 34.631C459.585 40.7948 457.89 48.0941 457.89 56.5288V58.4752C457.89 66.91 459.585 74.2633 462.975 80.5353C466.475 86.6991 471.286 91.5112 477.41 94.9716ZM517.107 48.2563H479.051C479.816 43.6064 481.839 39.8757 485.12 37.0641C488.401 34.2525 492.83 32.8467 498.407 32.8467C503.765 32.8467 508.085 34.2525 511.365 37.0641C514.755 39.8757 516.669 43.6064 517.107 48.2563Z" fill="black"/>
<path d="M556.499 97.729V17.2749H576.84V26.3585H579.792C580.995 23.1143 582.963 20.7353 585.697 19.2214C588.54 17.7074 591.821 16.9505 595.539 16.9505H605.382V35.1176H595.211C589.962 35.1176 585.643 36.5234 582.253 39.3349C578.862 42.0384 577.168 46.2557 577.168 51.987V97.729H556.499Z" fill="black"/>
<path d="M375.255 97.729V73.3981L419.873 36.7396V34.1443H376.896V17.2749H442.509V41.6058L397.892 78.2643V80.8596H443.822V97.729H375.255Z" fill="black"/>
<path fill-rule="evenodd" clip-rule="evenodd" d="M620.279 33.4628C616.561 39.5791 614.702 46.9294 614.702 55.5138V58.7997C614.702 67.4507 616.561 74.858 620.279 81.0219C623.998 87.1857 629.082 91.8896 635.535 95.1338C641.986 98.3779 649.259 100 657.351 100C665.444 100 672.716 98.3779 679.168 95.1338C685.62 91.8896 690.705 87.1857 694.423 81.0219C698.141 74.858 700 67.4507 700 58.7997V56.2043C700 55.9947 699.999 55.7858 699.997 55.5777L699.993 55.3186C699.965 46.818 698.107 39.5327 694.417 33.4628C690.699 27.3465 685.615 22.6788 679.163 19.4597C672.711 16.2405 665.44 14.631 657.348 14.631C649.256 14.631 641.984 16.2405 635.533 19.4597C629.081 22.6788 623.997 27.3465 620.279 33.4628ZM637.854 76.5164L665.219 30.1571C662.904 29.5603 660.413 29.2619 657.745 29.2619C650.37 29.2619 644.267 31.6206 639.436 36.338C634.604 40.9312 632.188 47.5728 632.188 56.2627V58.1249C632.188 65.8081 634.077 71.9387 637.854 76.5164ZM683.301 56.2627C683.301 48.0411 681.139 41.6529 676.814 37.0984L649.174 83.9249C651.809 84.7254 654.666 85.1256 657.745 85.1256C665.119 85.1256 671.223 82.829 676.054 78.2358C680.886 73.5184 683.301 66.8148 683.301 58.1249V56.2627Z" fill="black"/>
</svg>
